# xmcd
#
# Track frame offsets:
#	150
#	12097
#	26543
#	38594
#	50141
#	62361
#	79792
#	89427
#	98819
#	118395
#	129595
#	145409
#	156983
#	167161
#	177968
#	191978
#	207759
#
# Disc length: 2941 seconds
#
# Revision: 0
# Processed by: cddbd v1.5.1PL0 Copyright (c) Steve Scherf et al.
# Submitted via: audiograbber 1.83.01
#
DISCID=ec0b7b11
DTITLE=Various Artist - Truck Driving Songs CD 6
DYEAR=1980
DGENRE=Country
TTITLE0=Girl On The Billboard - 01 - Del Reeves
TTITLE1=Beaver On My Lap, Bear On My Tail - 02 - Ferlin Husky
TTITLE2=Truck Driving Man - 03 - Red Steagall
TTITLE3=Gotta Travel On - 04 - Al Hirt And Ace Cannon
TTITLE4=Sixteen Tons - 05 - Lee Conway
TTITLE5=Wolf Creek Pass - 06 - Lester Coombes
TTITLE6=Ballad Of A Teenage Queen - 07 - Johhny Cash
TTITLE7=Snow Bird - 08 - Liv Moessen
TTITLE8=Let Go - 09 - Brian Cadd
TTITLE9=Hello Darlin' - 10 - Conway Twitty
TTITLE10=Games People Play - 11 - Joe South
TTITLE11=Down Yonder - 12 - Del Wood
TTITLE12=Orange Blossom Special - 13 - The Sundowners
TTITLE13=Put Another Log On The Fire - Bill And Boyd
TTITLE14=By The Time I Get To Phoenix - 15 - Matt Flinders
TTITLE15=My Girl Bill - 16 - Cash Blackman
TTITLE16=Good Time Charlies Got The Blues - 17 - Charlie Rich
EXTD=
EXTT0=
EXTT1=
EXTT2=
EXTT3=
EXTT4=
EXTT5=
EXTT6=
EXTT7=
EXTT8=
EXTT9=
EXTT10=
EXTT11=
EXTT12=
EXTT13=
EXTT14=
EXTT15=
EXTT16=
PLAYORDER=
